<svg width="48" height="48" viewBox="0 0 48 48" fill="none" xmlns="http://www.w3.org/2000/svg">
<path d="M8 1H40C43.9 1 47 4.1 47 8V40C47 43.9 43.9 47 40 47H8C4.1 47 1 43.9 1 40V8C1 4.1 4.1 1 8 1Z" fill="#FFB45C"/>
<path d="M40 48H8C3.6 48 0 44.4 0 40V8C0 3.6 3.6 0 8 0H40C44.4 0 48 3.6 48 8V40C48 44.4 44.4 48 40 48ZM8 2C4.7 2 2 4.7 2 8V40C2 43.3 4.7 46 8 46H40C43.3 46 46 43.3 46 40V8C46 4.7 43.3 2 40 2H8Z" fill="#FFB45C"/>
<path d="M33.412 41.1983C31.712 41.1983 30.312 39.7983 30.312 38.0983V33.6983C30.212 33.5983 30.112 33.3983 30.012 33.2983C28.212 34.8983 26.112 35.6983 23.612 35.6983C21.212 35.6983 19.012 34.8983 17.212 33.2983C17.112 33.3983 17.012 33.4983 16.912 33.6983V38.0983C16.912 39.2983 16.212 40.3983 15.112 40.8983C14.612 41.0983 14.012 41.1983 13.512 41.1983C12.912 41.0983 12.312 40.8983 11.912 40.4983C11.312 39.9983 10.912 39.1983 10.812 38.3983C10.512 38.5983 10.112 38.6983 9.61203 38.6983C8.11203 38.5983 7.11203 37.1983 6.61203 34.3983C6.51203 33.6983 6.61203 33.1983 6.71203 32.8983L8.81203 25.4983C9.01203 24.6983 9.61203 23.9983 10.312 23.5983C9.71203 23.1983 9.21203 22.6983 8.91203 22.0983L8.11203 20.0983C7.71203 19.0983 7.31203 18.1983 7.01203 17.1983L6.91203 16.9983C6.81203 16.6983 6.71203 16.4983 6.61203 16.1983C6.41203 15.3983 6.51203 11.0983 8.81203 10.3983C9.41203 10.1983 10.012 10.2983 10.512 10.5983C11.212 10.9983 11.612 11.6983 11.912 12.4983V10.0983C11.912 9.09829 12.312 8.19829 13.112 7.69829C13.812 7.09829 14.812 6.89829 15.712 7.09829C17.112 7.39829 18.112 8.59829 18.112 10.0983V16.3983C18.212 16.4983 18.312 16.5983 18.412 16.6983V16.5983C18.412 15.7983 18.412 15.0983 18.412 14.2983C18.412 12.1983 20.112 9.69829 22.412 9.59829H25.012C25.312 9.59829 25.612 9.69829 25.812 9.79829C27.712 10.2983 28.912 12.4983 28.912 14.3983V16.6983L29.212 16.3983V10.0983C29.212 8.89829 29.912 7.79829 31.012 7.29829C32.112 6.79829 33.312 6.89829 34.212 7.69829C34.912 8.29829 35.312 9.09829 35.312 10.0983V12.5983C35.812 11.2983 36.612 10.1983 38.012 10.3983C39.912 10.5983 40.212 12.6983 40.512 14.5983C40.512 14.7983 40.512 14.8983 40.612 14.9983C40.712 15.5983 40.712 16.1983 40.412 16.7983L39.512 19.0983C39.112 20.0983 38.712 21.1983 38.212 22.1983C37.912 22.7983 37.512 23.2983 36.912 23.6983H36.812C37.512 24.0983 38.012 24.7983 38.312 25.5983C39.012 28.0983 39.712 30.5983 40.412 32.9983C40.812 34.3983 39.712 38.0983 37.712 38.6983C37.212 38.7983 36.612 38.7983 36.212 38.5983C36.312 39.9983 35.012 41.1983 33.412 41.1983ZM18.212 28.0983L18.812 29.0983C20.012 30.9983 21.612 31.7983 23.612 31.7983C25.612 31.7983 27.212 30.8983 28.412 29.0983L29.112 28.0983C29.012 27.6983 29.112 27.2983 29.212 26.9983C29.212 26.8983 29.312 26.7983 29.312 26.6983L29.212 25.4983C29.212 25.4983 29.212 25.6983 29.312 25.7983C29.112 25.3983 29.112 24.8983 29.212 24.4983L27.712 22.0983L25.512 20.8983L24.012 19.9983L24.712 18.3983C24.712 18.2983 24.812 18.1983 24.812 18.0983C24.912 17.8983 24.912 17.7983 24.912 17.5983V16.6983L24.012 16.3983C23.712 16.2983 23.512 16.2983 23.212 16.3983L22.412 16.6983V17.6983C22.412 17.7983 22.412 17.8983 22.512 18.1983L23.512 20.0983L21.812 20.8983C21.512 21.0983 21.112 21.2983 20.812 21.4983L19.712 22.0983L18.212 24.4983C18.212 24.5983 18.212 24.6983 18.212 24.7983C18.212 24.9983 18.212 25.1983 18.112 25.3983V25.8983L18.212 27.0983C18.212 27.2983 18.312 27.6983 18.212 28.0983Z" fill="#FFB45C"/>
<path d="M30.2 21.8C30.4 22.1 30.6 22.5 30.8 22.8C30.9 22.7 31 22.7 31.1 22.6C32.4 21.8 33.7 21.1 35 20.3C35.1 20.3 35.1 20.2 35.2 20.1C35.9 18.5 36.5 16.8 37.2 15.2C37.4 14.7 38 12.4 38.5 12.4C39 12.4 39.2 14.9 39.3 15.3C39.3 15.5 39.3 15.7 39.2 15.9C38.5 17.7 37.8 19.5 37 21.3C36.9 21.5 36.7 21.7 36.5 21.9C34.9 22.8 33.3 23.8 31.7 24.8C31.5 24.9 31.5 25 31.5 25.2V25.3C31.6 25.3 31.6 25.3 31.7 25.3C33.1 25.3 34.4 25.3 35.8 25.3C36.4 25.3 36.8 25.6 37 26.2C37.7 28.7 38.4 31.2 39.1 33.6C39.3 34.2 38.4 36.6 37.8 36.8C37.2 37 37.2 34.8 37 34.2C36.4 32 35.7 29.8 35.1 27.6C35.1 27.5 35 27.4 34.9 27.4C33.8 27.4 32.7 27.4 31.7 27.4C31.6 27.4 31.5 27.4 31.5 27.6C31.4 27.8 31.5 28 31.6 28.2C32.6 29.5 33.6 30.8 34.5 32.1C34.7 32.3 34.8 32.6 34.8 32.9C34.8 34.7 34.8 36.4 34.8 38.2C34.8 38.8 34.3 39.3 33.7 39.3C33.1 39.3 32.6 38.8 32.6 38.2C32.6 36.6 32.6 35 32.6 33.3C32.6 33.2 32.6 33.1 32.5 33C31.8 32.1 31.2 31.2 30.5 30.3L30.4 30.2C28.9 32.5 26.7 33.8 23.9 33.8C21.1 33.8 19 32.5 17.4 30.2L17.3 30.3C16.6 31.2 16 32.1 15.3 33C15.3 33.1 15.2 33.2 15.2 33.2C15.2 34.8 15.2 36.5 15.2 38.1C15.2 38.6 15 38.9 14.6 39.1C14.4 39.2 14.2 39.2 14 39.2C13.8 39.2 13.6 39.1 13.4 38.9C13.2 38.7 13 38.4 13 38.1C13 36.3 13 34.5 13 32.6C13 32.3 13.1 32.1 13.2 31.9C14.2 30.6 15.2 29.2 16.2 27.9C16.3 27.8 16.4 27.6 16.3 27.5C16.3 27.4 16.3 27.3 16.3 27.3C16.2 27.3 16.2 27.3 16.1 27.3C15 27.3 13.9 27.3 12.8 27.3C12.7 27.3 12.6 27.3 12.6 27.5C12 29.7 11.3 31.9 10.7 34.1C10.5 34.6 10.3 36.7 9.79997 36.7C9.29997 36.7 8.69997 34.5 8.59997 34C8.59997 33.8 8.59997 33.5 8.69997 33.3C9.39997 30.9 10.1 28.4 10.8 26C11 25.5 11.4 25.2 11.9 25.2C13.2 25.2 14.5 25.2 15.9 25.2C16 25.2 16.1 25.2 16.3 25.2C16.3 25.1 16.3 25 16.3 24.9L16.2 24.8C15.1 24.1 14 23.5 12.8 22.8C12.3 22.5 11.8 22.2 11.3 21.9C11.1 21.8 10.9 21.6 10.8 21.3C10.2 19.7 9.49997 18.1 8.89997 16.5C8.79997 16.3 8.69997 16 8.59997 15.8C8.39997 15.2 8.89997 12.6 9.49997 12.4C10.1 12.2 10.5 14.6 10.7 15.1C11.3 16.7 12 18.3 12.6 19.8C12.7 20 12.8 20.1 13 20.2C14.3 21 15.6 21.8 17 22.6C17 22.6 17.1 22.6 17.1 22.7C17.3 22.4 17.5 22.1 17.7 21.7L17.6 21.6C16.5 20.5 15.5 19.5 14.4 18.4C14.1 18.1 14 17.8 14 17.5C14 15 14 12.5 14 10.1C14 9.40001 14.6 8.90001 15.3 9.00001C15.8 9.10001 16.1 9.50001 16.1 10C16.1 10.7 16.1 11.4 16.1 12.1C16.1 13.7 16.1 15.3 16.1 16.9C16.1 17 16.1 17.1 16.2 17.3C17.1 18.2 18.1 19.2 19 20.1C19 20.1 19.1 20.1 19.1 20.2C19.7 19.9 20.2 19.6 20.8 19.2C20.8 19.2 20.8 19.1 20.7 19.1C20.5 18.7 20.3 18.2 20.3 17.7C20.3 16.6 20.3 15.4 20.3 14.3C20.3 13.2 21.3 11.6 22.4 11.6H22.5L22.1 13.7L22.5 14.5C23.2 14.2 23.9 14.2 24.7 14.5L25 13.7L24.7 11.6C24.9 11.6 25.1 11.6 25.3 11.7C26.2 12 26.9 13.4 26.9 14.3C26.9 15.4 26.9 16.5 26.9 17.6C26.9 18.1 26.8 18.6 26.6 19C26.6 19.1 26.5 19.1 26.5 19.1C27.1 19.4 27.6 19.7 28.2 20.1C28.2 20.1 28.2 20.1 28.3 20C29.2 19.1 30.2 18.1 31.1 17.2C31.2 17.1 31.2 17.1 31.2 17C31.2 14.7 31.2 12.4 31.2 10C31.2 9.50001 31.4 9.20001 31.8 9.00001C32.2 8.80001 32.6 8.90001 32.9 9.10001C33.2 9.30001 33.3 9.60001 33.3 9.90001C33.3 11.9 33.3 14 33.3 16C33.3 16.5 33.3 16.9 33.3 17.4C33.3 17.7 33.2 18 33 18.2C31.9 19.3 30.9 20.3 29.8 21.4C30.3 21.7 30.3 21.7 30.2 21.8Z" fill="#744712"/>
</svg>
